<?xml version="1.0" encoding="UTF-8"?>
<svg width="100px" height="100px" viewBox="0 0 100 100" version="1.1" xmlns="http://www.w3.org/2000/svg" xmlns:xlink="http://www.w3.org/1999/xlink">
    <title>pictogram/cupon</title>
    <g id="pictogram/cupon" stroke="none" stroke-width="1" fill="none" fill-rule="evenodd">
        <g id="cupon" transform="translate(19.000000, 29.000000)" fill="#C83B3F" fill-rule="nonzero">
            <path d="M55,0 L6.48,0 C2.98469083,0.0054871074 0.151004554,2.83470385 0.14,6.33 L0.12,12 C0.108131902,14.9962157 2.19225079,17.5930278 5.12,18.23 C6.32999137,18.4824108 7.19701313,19.5489618 7.19701313,20.785 C7.19701313,22.0210382 6.32999137,23.0875892 5.12,23.34 C2.22340264,23.9742921 0.141827604,26.5152206 0.09,29.48 L4.82795227e-16,34.83 C-0.0267712714,36.5296513 0.629032307,38.1690761 1.82063466,39.3813529 C3.01223701,40.5936297 4.64013965,41.2775339 6.34,41.28 L55,41.28 C58.5031023,41.2744833 61.34,38.4331066 61.34,34.93 L61.34,6.34 C61.3344938,2.84079798 58.4992114,0.00550622898 55,0 Z M9.06,31.5 C13.38356,29.7073049 16.2078391,25.4937532 16.2231347,20.8132946 C16.2384304,16.1328359 13.4417509,11.9009151 9.13,10.08 L9.13,9 L39.13,9 L39.02,32.28 L9,32.28 L9.06,31.5 Z" id="Shape"></path>
        </g>
    </g>
</svg>