<?xml version="1.0" encoding="UTF-8"?>
<svg width="100px" height="100px" viewBox="0 0 100 100" version="1.1" xmlns="http://www.w3.org/2000/svg" xmlns:xlink="http://www.w3.org/1999/xlink">
    <title>pictogram/event</title>
    <g id="pictogram/event" stroke="none" stroke-width="1" fill="none" fill-rule="evenodd">
        <g id="event" transform="translate(22.000000, 20.000000)" fill="#C83B3F" fill-rule="nonzero">
            <path d="M4.5,15.9099888 C3.30571145,15.9073371 2.15957102,16.3805878 1.31507939,17.2250794 C0.470587763,18.069571 -0.00266286065,19.2157115 -1.11768454e-05,20.41 L-1.11768454e-05,39.22 C-1.11768454e-05,41.7052814 2.01471863,43.72 4.5,43.72 C6.98528137,43.72 9.00001118,41.7052814 9.00001118,39.22 L9.00001118,20.41 C9.00266286,19.2157115 8.52941224,18.069571 7.68492061,17.2250794 C6.84042898,16.3805878 5.69428855,15.9073371 4.5,15.9099888 Z" id="Path"></path>
            <path d="M55.62,27.65 L49,23.45 L49,4.50000019 C48.9999999,2.0147187 46.9852813,1.89660817e-07 44.5,1.89660817e-07 C42.0147187,1.89660817e-07 40.0000001,2.0147187 40,4.50000019 L40,7.00000019 L19.35,15.62 C16.1522457,16.6076594 13.9788246,19.573262 13.9998466,22.92 L13.9998466,36.71 C13.983245,40.05305 16.155801,43.0134114 19.35,44.0000002 L40,52.6 L40,55.13 C40.0000001,57.6152813 42.0147187,59.6299998 44.5,59.6299998 C46.9852813,59.6299998 48.9999999,57.6152813 49,55.13 L49,36.19 L55.62,32.0000002 C56.3722757,31.5330094 56.8298241,30.7104372 56.8298241,29.825 C56.8298241,28.9395628 56.3722757,28.1169906 55.62,27.65 Z M23,35.78 L23,23.85 L40,16.78 L40,42.85 L23,35.78 Z" id="Shape"></path>
        </g>
    </g>
</svg>