<?xml version="1.0" encoding="UTF-8"?>
<svg width="100px" height="100px" viewBox="0 0 100 100" version="1.1" xmlns="http://www.w3.org/2000/svg" xmlns:xlink="http://www.w3.org/1999/xlink">
    <title>pictogram/filter</title>
    <g id="pictogram/filter" stroke="none" stroke-width="1" fill="none" fill-rule="evenodd">
        <g id="filter" transform="translate(24.000000, 31.000000)" fill="#C83B3F" fill-rule="nonzero">
            <path d="M4.5,13 L27,13 C28.5478461,15.4876099 31.2701484,17 34.2,17 C37.1298516,17 39.8521539,15.4876099 41.4,13 L47.89,13 C50.3752814,13 52.39,10.9852814 52.39,8.5 C52.39,6.01471863 50.3752814,4 47.89,4 L41.39,4 C39.841161,1.51697132 37.1214883,0.00802573522 34.195,0.00802573522 C31.2685117,0.00802573522 28.548839,1.51697132 27,4 L4.5,4 C2.01471863,4 0,6.01471863 0,8.5 C0,10.9852814 2.01471863,13 4.5,13 Z" id="Path"></path>
            <path d="M47.88,25 L27.39,25 C25.841161,22.5169713 23.1214883,21.0080257 20.195,21.0080257 C17.2685117,21.0080257 14.548839,22.5169713 13,25 L4.5,25 C2.01471863,25 -3.55271368e-15,27.0147186 -3.55271368e-15,29.5 C-3.55271368e-15,31.9852814 2.01471863,34 4.5,34 L13,34 C14.5478461,36.4876099 17.2701484,38 20.2,38 C23.1298516,38 25.8521539,36.4876099 27.4,34 L47.88,34 C50.3652814,34 52.38,31.9852814 52.38,29.5 C52.38,27.0147186 50.3652814,25 47.88,25 Z" id="Path"></path>
        </g>
    </g>
</svg>