<?xml version="1.0" encoding="UTF-8"?>
<svg width="100px" height="100px" viewBox="0 0 100 100" version="1.1" xmlns="http://www.w3.org/2000/svg" xmlns:xlink="http://www.w3.org/1999/xlink">
    <title>pictogram/logout</title>
    <g id="pictogram/logout" stroke="none" stroke-width="1" fill="none" fill-rule="evenodd">
        <g id="logout" transform="translate(21.000000, 21.000000)" fill="#C83B3F" fill-rule="nonzero">
            <path d="M27.29,48.19 L9,48.19 L9,9 L27.29,9 C29.7752814,9 31.79,6.98528137 31.79,4.5 C31.79,2.01471863 29.7752814,-2.99800158e-05 27.29,-2.99800158e-05 L6.88,-2.99800158e-05 C3.09521047,-0.01107054 0.0165354378,3.0452304 0,6.83 L0,50.36 C0.0165354378,54.1447696 3.09521047,57.2010705 6.88,57.19003 L27.29,57.19003 C29.7752814,57.19003 31.79,55.1752814 31.79,52.69 C31.79,50.2047186 29.7752814,48.19 27.29,48.19 L27.29,48.19 Z" id="Path"></path>
            <path d="M55.59,23.82 L44.06,12.29 C42.9238954,11.1521091 41.2670339,10.7067591 39.7135392,11.1217091 C38.1600445,11.5366591 36.9459294,12.7488682 36.5285392,14.3017091 C36.1111491,15.85455 36.5538954,17.5121091 37.69,18.65 L43.14,24.1 L18.8600001,24.1 C16.3747187,24.1000001 14.3600001,26.1147187 14.3600001,28.6 C14.3600001,31.0852813 16.3747187,33.0999999 18.8600001,33.1 L43.14,33.1 L37.69,38.54 C35.9337345,40.2990269 35.9359731,43.1487345 37.695,44.905 C39.4540269,46.6612655 42.3037345,46.6590269 44.06,44.9 L55.59,33.37 C56.8571124,32.1039648 57.5690593,30.386206 57.5690593,28.595 C57.5690593,26.803794 56.8571124,25.0860352 55.59,23.82 Z" id="Path"></path>
        </g>
    </g>
</svg>