<?xml version="1.0" encoding="UTF-8"?>
<svg width="100px" height="100px" viewBox="0 0 100 100" version="1.1" xmlns="http://www.w3.org/2000/svg" xmlns:xlink="http://www.w3.org/1999/xlink">
    <title>pictogram/map</title>
    <g id="pictogram/map" stroke="none" stroke-width="1" fill="none" fill-rule="evenodd">
        <g id="map" transform="translate(30.000000, 26.000000)" fill="#C83B3F" fill-rule="nonzero">
            <path d="M40.2200052,20.11 C40.2200052,9.86786862 32.5219045,1.26213249 22.3431169,0.124794003 C12.1643294,-1.01254448 2.7568644,5.68190624 0.496046318,15.6713986 C-1.76477177,25.6608909 3.84341205,35.7536775 13.52,39.11 L17.96,46.11 C18.4314161,46.852925 19.2501303,47.3030468 20.13,47.3030468 C21.0098697,47.3030468 21.8285839,46.852925 22.3,46.11 L26.74,39.11 C34.817714,36.2891761 40.2261014,28.6660782 40.2200052,20.11 L40.2200052,20.11 Z M20.11,31.11 C14.0348678,31.11 9.11,26.1851322 9.11,20.11 C9.11,14.0348678 14.0348678,9.11 20.11,9.11 C26.1851322,9.11 31.11,14.0348678 31.11,20.11 C31.0934634,26.1734132 26.1734358,31.0800226 20.11,31.08 L20.11,31.11 Z" id="Shape"></path>
        </g>
    </g>
</svg>