<svg width="100px" height="100px" viewBox="0 0 100 100" version="1.1" xmlns="http://www.w3.org/2000/svg" xmlns:xlink="http://www.w3.org/1999/xlink">
    <title>pictogram/mark</title>
    <g id="pictogram/mark" stroke="none" stroke-width="1" fill="none" fill-rule="evenodd">
        <g id="mark" transform="translate(25.000000, 20.000000)" fill="#C83B3F" fill-rule="nonzero">
            <path d="M41.93,60.0900067 C39.946228,60.0893492 38.0437371,59.3017395 36.64,57.9 L24.26,45.52 L12.92,57.52 C10.8054455,59.7456902 7.54678857,60.455636 4.69802003,59.3112777 C1.84925149,58.1669194 -0.0127373978,55.3999961 -6.494085e-05,52.33 L-6.494085e-05,7.49 C0.00550877325,3.35567118 3.35567118,0.00550877325 7.49,0 L41.94,0 C46.070423,0.0110108486 49.4145074,3.35956593 49.4200067,7.49 L49.4200067,52.6 C49.4226586,54.5872853 48.6343896,56.4939412 47.2291654,57.8991654 C45.8239412,59.3043896 43.9172853,60.0926586 41.93,60.0900067 Z M24.24,35.86 C26.226755,35.8555412 28.1323113,36.6480221 29.53,38.06 L40.42,49 L40.42,9 L9,9 L9,48.53 L18.8,38.2 C20.1888928,36.7279361 22.1162782,35.8833515 24.14,35.86 L24.24,35.86 Z" id="Shape"></path>
        </g>
    </g>
</svg>