<?xml version="1.0" encoding="UTF-8"?>
<svg width="100px" height="100px" viewBox="0 0 100 100" version="1.1" xmlns="http://www.w3.org/2000/svg" xmlns:xlink="http://www.w3.org/1999/xlink">
    <title>pictogram/profile</title>
    <g id="pictogram/profile" stroke="none" stroke-width="1" fill="none" fill-rule="evenodd">
        <g id="profile" transform="translate(19.000000, 19.000000)" fill="#C83B3F" fill-rule="nonzero">
            <path d="M31.19,35.5 C21.3869457,35.5 13.44,27.5530543 13.44,17.75 C13.44,7.94694569 21.3869457,0 31.19,0 C40.9930543,0 48.94,7.94694569 48.94,17.75 C48.9289781,27.5484852 40.9884852,35.4889781 31.19,35.5 Z M31.19,9 C26.3575084,9 22.44,12.9175084 22.44,17.75 C22.44,22.5824916 26.3575084,26.5 31.19,26.5 C36.0224916,26.5 39.94,22.5824916 39.94,17.75 C39.9290024,12.9220711 36.0179289,9.0109976 31.19,9 Z" id="Shape"></path>
            <path d="M57.89,62 C56.6957115,62.0026629 55.549571,61.5294122 54.7050794,60.6849206 C53.8605878,59.840429 53.3873371,58.6942885 53.39,57.5 C53.3352189,52.2410546 49.0592282,48.0051931 43.8,48 L18.59,48 C13.3153104,48.0053915 9.03296407,52.2654106 9,57.54 C9,60.0252814 6.98528137,62.04 4.5,62.04 C2.01471863,62.04 0,60.0252814 0,57.54 C0.0330476092,47.2948443 8.34479242,39.0054549 18.59,39 L43.8,39 C54.0452076,39.0054549 62.3569524,47.2948443 62.39,57.54 C62.3680467,60.0096463 60.3597438,62.0000976 57.89,62 L57.89,62 Z" id="Path"></path>
        </g>
    </g>
</svg>