<?xml version="1.0" encoding="UTF-8"?>
<svg width="100px" height="100px" viewBox="0 0 100 100" version="1.1" xmlns="http://www.w3.org/2000/svg" xmlns:xlink="http://www.w3.org/1999/xlink">
    <title>pictogram/review</title>
    <g id="pictogram/review" stroke="none" stroke-width="1" fill="none" fill-rule="evenodd">
        <g id="review" transform="translate(25.000000, 25.000000)" fill="#C83B3F" fill-rule="nonzero">
            <path d="M15.39,28.93 L14.16,34.43 C14.0290961,35.0148118 14.2065463,35.625939 14.6303037,36.0496963 C15.054061,36.4734537 15.6651882,36.6509039 16.25,36.52 L21.77,35.28 L49.36,7.68 C51.0121532,5.90694147 50.9634033,3.14394167 49.2497308,1.43026921 C47.5360583,-0.283403256 44.7730585,-0.332153163 43,1.32 L15.39,28.93 Z" id="Path"></path>
            <path d="M30.5,50.39 L7.5,50.39 C3.36014834,50.3844912 0.00550879196,47.0298517 0,42.89 L0,20.39 C0,16.2478644 3.35786438,12.89 7.5,12.89 L13,12.89 C15.4852814,12.89 17.5,14.9047186 17.5,17.39 C17.5,19.8752814 15.4852814,21.89 13,21.89 L9,21.89 L9,41.39 L29,41.39 L29,35.39 C29,32.9047186 31.0147186,30.89 33.5,30.89 C35.9852814,30.89 38,32.9047186 38,35.39 L38,42.89 C37.9944912,47.0298517 34.6398517,50.3844912 30.5,50.39 Z" id="Path"></path>
        </g>
    </g>
</svg>