<?xml version="1.0" encoding="UTF-8"?>
<svg width="100px" height="100px" viewBox="0 0 100 100" version="1.1" xmlns="http://www.w3.org/2000/svg" xmlns:xlink="http://www.w3.org/1999/xlink">
    <title>pictogram/search@3x</title>
    <g id="pictogram/search" stroke="none" stroke-width="1" fill="none" fill-rule="evenodd">
        <g id="search" transform="translate(50.000000, 50.500000) scale(-1, 1) translate(-50.000000, -50.500000) translate(19.000000, 19.000000)" fill="#C83B3F" fill-rule="nonzero">
            <path d="M4.51,62.6700015 C2.6983765,62.6588501 1.06926389,61.5647527 0.373556567,59.8920019 C-0.322150754,58.2192511 0.0506001273,56.2925664 1.32,55 L14.67,41.62 C16.4317884,39.8582116 19.2882116,39.8582116 21.05,41.62 C22.8117884,43.3817884 22.8117884,46.2382116 21.05,48 L7.71,61.35 C6.86013064,62.1962623 5.7093485,62.6709599 4.51,62.6700015 Z" id="Path"></path>
            <path d="M56.08,35.32 C63.3316036,28.0833148 63.9838853,16.551926 57.5946251,8.54363516 C51.205365,0.535344328 39.817104,-1.38973013 31.1506091,4.07353214 C22.4841143,9.53679442 19.3099209,20.6418787 23.78,29.86 L22,37.94 C21.8200521,38.7830299 22.0747362,39.660128 22.6782126,40.2756739 C23.281689,40.8912199 24.1535724,41.1632206 25,41 L33.1,39.19 C40.8034651,42.9188109 50.0227217,41.3662207 56.08,35.32 Z M34.08,28.85 C30.9204521,25.7091958 29.9673285,20.9727767 31.6660747,16.8543236 C33.3648209,12.7358705 37.3799585,10.0487197 41.835,10.0487197 C46.2900415,10.0487197 50.3051791,12.7358705 52.0039253,16.8543236 C53.7026715,20.9727767 52.7495479,25.7091958 49.59,28.85 C45.3019318,33.1017223 38.3880682,33.1017223 34.1,28.85 L34.08,28.85 Z" id="Shape"></path>
        </g>
    </g>
</svg>