<?xml version="1.0" encoding="UTF-8"?>
<svg width="100px" height="100px" viewBox="0 0 100 100" version="1.1" xmlns="http://www.w3.org/2000/svg" xmlns:xlink="http://www.w3.org/1999/xlink">
    <title>pictogram/setting</title>
    <g id="pictogram/setting" stroke="none" stroke-width="1" fill="none" fill-rule="evenodd">
        <g id="setting" transform="translate(20.000000, 20.000000)" fill="#C83B3F" fill-rule="nonzero">
            <path d="M58.68,27.85 L52.68,24.06 C52.1657155,22.1071869 51.4028108,20.2284921 50.41,18.47 L52,11.41 C52.1988931,10.5040722 51.9224492,9.55923955 51.2666048,8.90339517 C50.6107604,8.24755079 49.6659278,7.97110686 48.76,8.17 L41.85,9.72 C40.1079991,8.70029614 38.242915,7.90721531 36.3,7.36 L32.43,1.26 C31.9332353,0.474987528 31.0689886,-0.000862325381 30.14,-0.000862325381 C29.2110114,-0.000862325381 28.3467647,0.474987528 27.85,1.26 L24.06,7.26 C22.1042628,7.76547492 20.2244463,8.52883509 18.47,9.53 L11.41,7.93 C10.5052326,7.72670761 9.55933677,8.0001553 8.90260623,8.65485889 C8.2458757,9.30956247 7.96950539,10.2546085 8.17,11.16 L9.72,18.09 C8.69682452,19.8302535 7.90354841,21.6957969 7.36,23.64 L1.26,27.51 C0.474757105,28.0042816 -0.00167632294,28.8671419 -0.00167632294,29.795 C-0.00167632294,30.7228581 0.474757105,31.5857184 1.26,32.08 L7.26,35.87 C7.76542571,37.8289257 8.5287652,39.712054 9.53,41.47 L7.93,48.53 C7.72507042,49.4342299 7.99843123,50.3803649 8.65403318,51.0359668 C9.30963513,51.6915688 10.2557701,51.9649296 11.16,51.76 L18.09,50.21 C19.8278787,51.2403305 21.6939377,52.0371881 23.64,52.58 L27.51,58.68 C28.0042816,59.4652429 28.8671419,59.9416763 29.795,59.9416763 C30.7228581,59.9416763 31.5857184,59.4652429 32.08,58.68 L35.88,52.68 C37.8322227,52.1639447 39.7106966,51.4011297 41.47,50.41 L48.53,52 C49.4353915,52.2004946 50.3804375,51.9241243 51.0351411,51.2673938 C51.6898447,50.6106632 51.9632924,49.6647674 51.76,48.76 L50.21,41.84 C51.2369502,40.100409 52.0336136,38.2348048 52.58,36.29 L58.68,32.42 C59.460505,31.9223183 59.9329911,31.0606755 59.9329911,30.135 C59.9329911,29.2093245 59.460505,28.3476817 58.68,27.85 Z M15.4799445,30 C15.4638316,24.1384622 18.9806903,18.8445343 24.3902439,16.5874085 C29.7997975,14.3302827 36.0363833,15.5546047 40.191135,19.6893266 C44.3458867,23.8240485 45.6003331,30.0546449 43.3693756,35.475043 C41.1384182,40.8954412 35.8615475,44.437842 30,44.4500036 C22.0058198,44.4555778 15.5130546,37.9941138 15.4799445,30 Z" id="Shape"></path>
        </g>
    </g>
</svg>