<?xml version="1.0" encoding="UTF-8"?>
<svg width="100px" height="100px" viewBox="0 0 100 100" version="1.1" xmlns="http://www.w3.org/2000/svg" xmlns:xlink="http://www.w3.org/1999/xlink">
    <title>pictogram/write</title>
    <g id="pictogram/write" stroke="none" stroke-width="1" fill="none" fill-rule="evenodd">
        <g id="write" transform="translate(21.000000, 21.000000)" fill="#C83B3F" fill-rule="nonzero">
            <path d="M39.53,24.35 L33.15,24.35 L33.15,18 C33.15,15.5147186 31.1352814,13.5 28.65,13.5 C26.1647186,13.5 24.15,15.5147186 24.15,18 L24.15,24.39 L17.76,24.39 C15.2747186,24.39 13.26,26.4047186 13.26,28.89 C13.26,31.3752814 15.2747186,33.39 17.76,33.39 L24.15,33.39 L24.15,39.77 C24.15,42.2552814 26.1647186,44.27 28.65,44.27 C31.1352814,44.27 33.15,42.2552814 33.15,39.77 L33.15,33.35 L39.53,33.35 C42.0152814,33.35 44.03,31.3352814 44.03,28.85 C44.03,26.3647186 42.0152814,24.35 39.53,24.35 L39.53,24.35 Z" id="Path"></path>
            <path d="M49.29,57.29 L8,57.29 C3.581722,57.29 0,53.708278 0,49.29 L0,8 C0,3.581722 3.581722,0 8,0 L49.29,0 C53.708278,0 57.29,3.581722 57.29,8 L57.29,49.29 C57.29,53.708278 53.708278,57.29 49.29,57.29 Z M9,48.29 L48.29,48.29 L48.29,9 L9,9 L9,48.29 Z" id="Shape"></path>
        </g>
    </g>
</svg>