<svg xmlns="http://www.w3.org/2000/svg" viewBox="0 0 56.82 59.63"><defs><style>.cls-1{fill:#c83b3f;}</style></defs><g id="레이어_2" data-name="레이어 2"><g id="레이어_1-2" data-name="레이어 1"><path class="cls-1" d="M4.5,15.91A4.49,4.49,0,0,0,0,20.41V39.22a4.5,4.5,0,0,0,9,0V20.41A4.49,4.49,0,0,0,4.5,15.91Z"/><path class="cls-1" d="M55.62,27.65,49,23.45V4.5a4.5,4.5,0,0,0-9,0V7L19.35,15.62A7.59,7.59,0,0,0,14,22.92V36.71A7.59,7.59,0,0,0,19.35,44L40,52.6v2.53a4.5,4.5,0,0,0,9,0V36.19L55.62,32A2.56,2.56,0,0,0,55.62,27.65ZM23,35.78V23.85l17-7.07V42.85Z"/></g></g></svg>