<svg xmlns="http://www.w3.org/2000/svg" viewBox="0 0 57.57 57.19"><defs><style>.cls-1{fill:#c83b3f;}</style></defs><g id="레이어_2" data-name="레이어 2"><g id="레이어_1-2" data-name="레이어 1"><path class="cls-1" d="M27.29,48.19H9V9H27.29a4.5,4.5,0,0,0,0-9H6.88A6.86,6.86,0,0,0,0,6.83V50.36a6.86,6.86,0,0,0,6.88,6.83H27.29a4.5,4.5,0,0,0,0-9Z"/><path class="cls-1" d="M55.59,23.82,44.06,12.29a4.5,4.5,0,0,0-6.37,6.36l5.45,5.45H18.86a4.5,4.5,0,0,0,0,9H43.14l-5.45,5.44a4.5,4.5,0,0,0,6.37,6.36L55.59,33.37a6.75,6.75,0,0,0,0-9.55Z"/></g></g></svg>