<?xml version="1.0" encoding="utf-8"?>
<!-- Generator: Adobe Illustrator 24.3.0, SVG Export Plug-In . SVG Version: 6.00 Build 0)  -->
<svg version="1.1" id="레이어_1" xmlns="http://www.w3.org/2000/svg" xmlns:xlink="http://www.w3.org/1999/xlink" x="0px"
	 y="0px" viewBox="0 0 100 100" style="enable-background:new 0 0 100 100;" xml:space="preserve">
<path d="M67.2,80c-2,0-3.9-0.8-5.3-2.2L49.6,65.5l-11.3,12c-2.8,3-7.6,3.1-10.6,0.3c-1.5-1.4-2.3-3.4-2.3-5.5V27.4
	c0-4.1,3.4-7.5,7.5-7.5h34.4c4.1,0,7.5,3.4,7.5,7.5v45.1C74.7,76.7,71.4,80,67.2,80C67.2,80,67.2,80,67.2,80z M49.5,55.8
	c2,0,3.9,0.8,5.3,2.2L65.7,69V29H34.3v39.5l9.8-10.3C45.5,56.7,47.4,55.8,49.5,55.8L49.5,55.8z"/>
</svg>
