<svg xmlns="http://www.w3.org/2000/svg" viewBox="0 0 62.39 62.04"><defs><style>.cls-1{fill:#c83b3f;}</style></defs><g id="레이어_2" data-name="레이어 2"><g id="레이어_1-2" data-name="레이어 1"><path class="cls-1" d="M31.19,35.5A17.75,17.75,0,1,1,48.94,17.75,17.77,17.77,0,0,1,31.19,35.5Zm0-26.5a8.75,8.75,0,1,0,8.75,8.75A8.77,8.77,0,0,0,31.19,9Z"/><path class="cls-1" d="M57.89,62a4.49,4.49,0,0,1-4.5-4.5A9.6,9.6,0,0,0,43.8,48H18.59A9.6,9.6,0,0,0,9,57.54a4.5,4.5,0,0,1-9,0A18.6,18.6,0,0,1,18.59,39H43.8A18.6,18.6,0,0,1,62.39,57.54,4.5,4.5,0,0,1,57.89,62Z"/></g></g></svg>