<?xml version="1.0" encoding="utf-8"?>
<!-- Generator: Adobe Illustrator 24.3.0, SVG Export Plug-In . SVG Version: 6.00 Build 0)  -->
<svg version="1.1" id="레이어_1" xmlns="http://www.w3.org/2000/svg" xmlns:xlink="http://www.w3.org/1999/xlink" x="0px"
	 y="0px" viewBox="0 0 100 100" style="enable-background:new 0 0 100 100;" xml:space="preserve">
<style type="text/css">
	.st0{fill:#C83B3F;}
</style>
<g id="레이어_2_1_">
	<g id="레이어_1-2">
		<path class="st0" d="M50,54.5c-9.8,0-17.8-7.9-17.8-17.7S40.2,19,50,19c9.8,0,17.8,7.9,17.8,17.7l0,0C67.7,46.5,59.8,54.5,50,54.5
			z M50,28c-4.8,0-8.8,3.9-8.8,8.7s3.9,8.8,8.8,8.8s8.8-3.9,8.8-8.8C58.7,31.9,54.8,28,50,28z"/>
		<path class="st0" d="M76.7,81c-2.5,0-4.5-2-4.5-4.5c0,0,0,0,0,0c-0.1-5.3-4.3-9.5-9.6-9.5H37.4c-5.3,0-9.6,4.3-9.6,9.5
			c0,2.5-2,4.5-4.5,4.5s-4.5-2-4.5-4.5c0-10.2,8.3-18.5,18.6-18.5h25.2c10.2,0,18.6,8.3,18.6,18.5C81.2,79,79.2,81,76.7,81z"/>
	</g>
</g>
</svg>
