<?xml version="1.0" encoding="utf-8"?>
<!-- Generator: Adobe Illustrator 24.3.0, SVG Export Plug-In . SVG Version: 6.00 Build 0)  -->
<svg version="1.1" id="레이어_1" xmlns="http://www.w3.org/2000/svg" xmlns:xlink="http://www.w3.org/1999/xlink" x="0px"
	 y="0px" viewBox="0 0 100 100" style="enable-background:new 0 0 100 100;" xml:space="preserve">
<path d="M40,53.7l-1.2,5.5c-0.2,0.9,0.4,1.9,1.3,2.1c0.3,0.1,0.5,0.1,0.8,0l5.5-1.2L74,32.5c1.7-1.8,1.6-4.7-0.2-6.4
	c-1.7-1.6-4.4-1.6-6.1,0L40,53.7z"/>
<path d="M55.2,75.2h-23c-4.1,0-7.5-3.4-7.5-7.5V45.2c0-4.1,3.4-7.5,7.5-7.5h5.5c2.5,0,4.5,2,4.5,4.5c0,2.5-2,4.5-4.5,4.5h-4v19.5h20
	v-6c0-2.5,2-4.5,4.5-4.5c2.5,0,4.5,2,4.5,4.5v7.5C62.7,71.8,59.3,75.2,55.2,75.2z"/>
</svg>
