<?xml version="1.0" encoding="utf-8"?>
<svg version="1.1" xmlns="http://www.w3.org/2000/svg" xmlns:xlink="http://www.w3.org/1999/xlink" x="0px" y="0px" viewBox="0 0 62 61.7" style="enable-background:new 0 0 62 61.7;" xml:space="preserve">
    <path class="st0" d="M57.5,61.7c2.5,0,4.5-2,4.5-4.5c0-1.2-0.5-2.3-1.3-3.1L47.3,40.6c-1.8-1.8-4.6-1.8-6.4,0
			c-1.8,1.8-1.8,4.6,0,6.4l13.3,13.3C55.2,61.2,56.3,61.7,57.5,61.7z" />
    <path class="st0" d="M5.9,34.3c-7.9-7.8-7.9-20.6,0-28.4s20.6-7.9,28.4,0c6.1,6.1,7.6,15.3,3.9,23l1.8,8.1c0.3,1.4-0.6,2.8-2,3
			c-0.3,0.1-0.7,0.1-1,0l-8.1-1.8C21.2,41.9,12,40.4,5.9,34.3z M27.9,27.8c4.3-4.3,4.3-11.2,0-15.6s-11.2-4.3-15.6,0
			s-4.3,11.2,0,15.6c0,0,0,0,0,0C16.7,32.1,23.6,32.1,27.9,27.8L27.9,27.8z" />
</svg>
