<?xml version="1.0" encoding="utf-8"?>
<!-- Generator: Adobe Illustrator 24.3.0, SVG Export Plug-In . SVG Version: 6.00 Build 0)  -->
<svg version="1.1" id="레이어_1" xmlns="http://www.w3.org/2000/svg" xmlns:xlink="http://www.w3.org/1999/xlink" x="0px"
	 y="0px" viewBox="0 0 100 100" style="enable-background:new 0 0 100 100;" xml:space="preserve">
<path d="M76.5,80.8c2.5,0,4.5-2,4.5-4.5c0-1.2-0.5-2.3-1.3-3.1L66.3,59.7c-1.8-1.8-4.6-1.8-6.4,0c-1.8,1.8-1.8,4.6,0,6.4l13.3,13.3
	C74.2,80.3,75.3,80.8,76.5,80.8z"/>
<path d="M24.9,53.4C17,45.6,17,32.8,24.9,25s20.6-7.9,28.4,0c6.1,6.1,7.6,15.3,3.9,23l1.8,8.1c0.3,1.4-0.6,2.8-2,3
	c-0.3,0.1-0.7,0.1-1,0l-8.1-1.8C40.2,61,31,59.5,24.9,53.4z M46.9,46.9c4.3-4.3,4.3-11.2,0-15.6s-11.2-4.3-15.6,0s-4.3,11.2,0,15.6
	l0,0C35.7,51.2,42.6,51.2,46.9,46.9L46.9,46.9z"/>
</svg>
