<?xml version="1.0" encoding="utf-8"?>
<!-- Generator: Adobe Illustrator 24.3.0, SVG Export Plug-In . SVG Version: 6.00 Build 0)  -->
<svg version="1.1" id="레이어_1" xmlns="http://www.w3.org/2000/svg" xmlns:xlink="http://www.w3.org/1999/xlink" x="0px"
	 y="0px" viewBox="0 0 100 100" style="enable-background:new 0 0 100 100;" xml:space="preserve">
<path d="M78.7,47.9l-6-3.8c-0.5-2-1.3-3.8-2.3-5.6l1.6-7.1c0.3-1.5-0.6-2.9-2.1-3.2c-0.4-0.1-0.8-0.1-1.2,0l-6.9,1.5
	c-1.7-1-3.6-1.8-5.5-2.4l-3.9-6.1c-0.8-1.3-2.5-1.6-3.7-0.8c-0.3,0.2-0.6,0.5-0.8,0.8l-3.8,6c-2,0.5-3.8,1.3-5.6,2.3L31.4,28
	c-1.5-0.3-2.9,0.6-3.2,2c-0.1,0.4-0.1,0.8,0,1.2l1.5,6.9c-1,1.7-1.8,3.6-2.4,5.5l-6.1,3.9c-1.3,0.8-1.6,2.5-0.8,3.7
	c0.2,0.3,0.5,0.6,0.8,0.8l6,3.8c0.5,2,1.3,3.8,2.3,5.6L28,68.6c-0.3,1.5,0.6,2.9,2,3.2c0.4,0.1,0.8,0.1,1.2,0l6.9-1.6
	c1.7,1,3.6,1.8,5.5,2.4l3.9,6.1c0.8,1.3,2.5,1.6,3.7,0.8c0.3-0.2,0.6-0.5,0.8-0.8l3.8-6c2-0.5,3.8-1.3,5.6-2.3l7.1,1.6
	c1.5,0.3,2.9-0.6,3.2-2.1c0.1-0.4,0.1-0.8,0-1.2l-1.6-6.9c1-1.7,1.8-3.6,2.4-5.5l6.1-3.9c1.3-0.8,1.6-2.5,0.8-3.8
	C79.3,48.4,79,48.1,78.7,47.9z M35.5,50c0-8,6.4-14.5,14.4-14.5c8,0,14.5,6.4,14.5,14.4S58,64.5,50,64.5c0,0,0,0,0,0
	C42,64.5,35.5,58,35.5,50z"/>
</svg>
