<svg xmlns="http://www.w3.org/2000/svg" viewBox="0 0 59.94 59.94"><defs><style>.cls-1{fill:#c83b3f;}</style></defs><g id="레이어_2" data-name="레이어 2"><g id="레이어_1-2" data-name="레이어 1"><path class="cls-1" d="M58.68,27.85l-6-3.79a23.59,23.59,0,0,0-2.27-5.59L52,11.41a2.72,2.72,0,0,0-3.24-3.24L41.85,9.72A23.71,23.71,0,0,0,36.3,7.36l-3.87-6.1a2.71,2.71,0,0,0-4.58,0l-3.79,6a22.78,22.78,0,0,0-5.59,2.27L11.41,7.93a2.71,2.71,0,0,0-3.24,3.23l1.55,6.93a23.36,23.36,0,0,0-2.36,5.55l-6.1,3.87a2.7,2.7,0,0,0,0,4.57l6,3.79a22.85,22.85,0,0,0,2.27,5.6L7.93,48.53a2.7,2.7,0,0,0,3.23,3.23l6.93-1.55a23,23,0,0,0,5.55,2.37l3.87,6.1a2.7,2.7,0,0,0,4.57,0l3.8-6a23.76,23.76,0,0,0,5.59-2.27L48.53,52a2.71,2.71,0,0,0,3.23-3.24l-1.55-6.92a23.33,23.33,0,0,0,2.37-5.55l6.1-3.87A2.71,2.71,0,0,0,58.68,27.85ZM15.48,30A14.49,14.49,0,1,1,30,44.45,14.51,14.51,0,0,1,15.48,30Z"/></g></g></svg>